# xmcd
#
# Track frame offsets: 
#        150
#        24636
#        42916
#        60836
#        81544
#        101441
#        120232
#        139350
#        155761
#        174151
#        192096
#        210246
#        230486
#
# Disc length: 3557 seconds
#
# Revision: 0
# Processed by: cddbd v1.5.2PL0 Copyright (c) Steve Scherf et al.
# Submitted via: ExactAudioCopy v0.99pb5
#
DISCID=a20de30d
DTITLE=Joan Armatrading - Into the Blues
DYEAR=1900
DGENRE=Blues
TTITLE0=A woman in Love
TTITLE1=Play the Blues
TTITLE2=Into the Blues
TTITLE3=Liza
TTITLE4=Secular Songs
TTITLE5=My Baby's Gone
TTITLE6=D.N.A.
TTITLE7=Baby Blue Eyes
TTITLE8=Deep Down
TTITLE9=Ther Ain't a Girl alive
TTITLE10=Empty Highway
TTITLE11=Mama Papa
TTITLE12=Something's gotta Blow
EXTD=
EXTT0=
EXTT1=
EXTT2=
EXTT3=
EXTT4=
EXTT5=
EXTT6=
EXTT7=
EXTT8=
EXTT9=
EXTT10=
EXTT11=
EXTT12=
PLAYORDER=
